<svg width="20" height="20" viewBox="0 0 20 20" fill="none" xmlns="http://www.w3.org/2000/svg">
<path d="M2 7.39062V15.8906C2 16.9952 2.89543 17.8906 4 17.8906H16C17.1046 17.8906 18 16.9952 18 15.8906V7.39062H2ZM10 0.390625C12.9731 0.390625 15.4411 2.55301 15.9171 5.39082L18 5.39062C19.1046 5.39062 20 6.28606 20 7.39062V15.8906C20 18.0998 18.2091 19.8906 16 19.8906H4C1.79086 19.8906 0 18.0998 0 15.8906V7.39062C0 6.28606 0.89543 5.39062 2 5.39062L4.08293 5.39082C4.55893 2.55301 7.02694 0.390625 10 0.390625ZM10 2.39062C8.13616 2.39062 6.57006 3.6654 6.12602 5.39062H13.874C13.4299 3.6654 11.8638 2.39062 10 2.39062Z" fill="#111111"/>
</svg>
